<svg xmlns="http://www.w3.org/2000/svg" version="1.1" x="0" y="0" width="31.9" height="31.9" viewBox="0 0 31.9 31.9" xml:space="preserve" fill="#165F86"><path d="M15.6 18.3h-0.8c-0.4 0-0.7-0.3-0.7-0.7 0-0.1 0.1-0.3 0.2-0.4 0.5-0.4 0.8-1 1.1-1.7 0.1 0 0.1 0.1 0.2 0.1 0.4 0 1-1 1-1.6 0-0.7-0.1-1.2-0.5-1.2 -0.1 0-0.1 0-0.2 0 0-1.8-0.5-4-3.2-4 -2.8 0-3.2 2.2-3.2 4 0 0-0.1 0-0.1 0 -0.4 0-0.5 0.5-0.5 1.2 0 0.7 0.5 1.6 0.9 1.6 0.1 0 0.1 0 0.2 0 0.3 0.6 0.6 1.2 1.1 1.6 0.1 0.1 0.2 0.2 0.2 0.4 0 0.4-0.3 0.7-0.7 0.7H9.7c-1.7 0-3 1.3-3 3v0.8c0 0.5 0.4 1 1 1h10c0.5 0 0.9-0.4 0.9-0.9v-0.8C18.6 19.7 17.2 18.3 15.6 18.3zM24.6 10.1h-8.4c0.2 0.5 0.4 1.2 0.5 2 0.2 0.1 0.3 0.3 0.4 0.5h7.5c0.4 0 0.7-0.3 0.7-0.7v-1.1C25.3 10.4 25 10.1 24.6 10.1zM24.6 14.7h-7.3c-0.2 0.8-0.7 1.5-1.4 1.7 0 0 0 0.1-0.1 0.1v0.7h8.8c0.4 0 0.7-0.3 0.7-0.7v-1.1C25.3 15 25 14.7 24.6 14.7zM24.6 19.3h-5.7c0.4 0.6 0.6 1.3 0.6 2.1v0.5h5.1c0.4 0 0.7-0.3 0.7-0.7v-1.1C25.3 19.6 25 19.3 24.6 19.3zM27.6 3.1H4.3C1.9 3.1 0 5 0 7.4v17.2c0 2.4 1.9 4.3 4.3 4.3h23.3c2.4 0 4.3-1.9 4.3-4.3V7.4C31.9 5 30 3.1 27.6 3.1zM29.9 24.6c0 1.3-1 2.3-2.3 2.3H4.3c-1.3 0-2.3-1-2.3-2.3V7.4c0-1.3 1-2.3 2.3-2.3h23.3c1.3 0 2.3 1 2.3 2.3V24.6z"/></svg>