<svg xmlns="http://www.w3.org/2000/svg" version="1.1" x="0" y="0" width="47.2" height="47.2" viewBox="0 0 47.2 47.2" xml:space="preserve"><path d="M47.2 36.9V6.7H0v30.2h19.3v1.9H9.2v1.6h28.2v-1.6h-9.8v-1.9H47.2zM3.5 32.5V10.1h40.3v22.3H3.5V32.5zM17.3 13.4h7.9v3.5h1.6v-5.1h-11.1v16.7h7.3v-2.8h-5.7V13.4zM21.5 26.6c0.3 0 0.5 0.2 0.5 0.5 0 0.3-0.2 0.5-0.5 0.5s-0.5-0.2-0.5-0.5C20.9 26.9 21.2 26.6 21.5 26.6zM23.7 30.9h7.8V17.8h-7.8V30.9zM27.7 30.3c-0.2 0-0.4-0.2-0.4-0.4s0.2-0.4 0.4-0.4c0.2 0 0.4 0.2 0.4 0.4S28 30.3 27.7 30.3zM27.8 18.3c0.1 0 0.2 0.1 0.2 0.2 0 0.1-0.1 0.2-0.2 0.2 -0.1 0-0.2-0.1-0.2-0.2C27.6 18.4 27.7 18.3 27.8 18.3zM26.7 18.9h2.2v0.2h-2.2V18.9zM25 19.8l5.3 0v9c-2 0-4.3 0-5.3 0V19.8z"/></svg>