<svg xmlns="http://www.w3.org/2000/svg" version="1.1" x="0" y="0" width="483.9" height="483.9" viewBox="0 0 483.9 483.9" xml:space="preserve"><polygon points="483.9 277.8 483.9 43 117.4 43 117.4 161.5 144.2 161.5 144.2 69.8 457.1 69.8 457.1 243.2 311 243.2 311 305.4 407.8 305.4 407.8 292.9 331.3 292.9 331.3 277.8 "/><path d="M0 440h135.2V237.1H0V440zM70.5 429.8c-3.6 0-6.5-2.9-6.5-6.5 0-3.6 2.9-6.5 6.5-6.5 3.6 0 6.5 2.9 6.5 6.5C77 426.9 74.1 429.8 70.5 429.8zM19.5 256.7h96.1l0 149.7H19.5V256.7z"/><polygon points="259.2 345.5 259.2 372.6 339.3 372.6 339.3 347.3 302.6 345.5 "/><path d="M151 440.9h97.4v-163.8h-97.4V440.9zM200.9 433.9c-3.1 0-5.6-2.5-5.6-5.6 0-3.1 2.5-5.6 5.6-5.6 3.1 0 5.6 2.5 5.6 5.6C206.5 431.4 204 433.9 200.9 433.9zM201.8 283.9c1.3 0 2.4 1.1 2.4 2.3 0 1.3-1.1 2.4-2.4 2.4 -1.3 0-2.4-1-2.4-2.4C199.5 285 200.5 283.9 201.8 283.9zM187.8 291.8h28v2.3h-28V291.8zM166.6 302.1l66.1 0v112.5c-25.3 0.1-53.6 0.2-66.1 0.1V302.1z"/><polygon points="66.9 188.7 283.6 188.7 283.6 318.6 259.2 318.6 259.2 337.7 302.7 337.7 302.7 169.6 47.8 169.6 47.8 228.5 66.9 228.5 "/></svg>