<svg xmlns="http://www.w3.org/2000/svg" version="1.1" x="0" y="0" width="254.8" height="254.8" viewBox="0 0 254.8 254.8" xml:space="preserve"><path d="M86.5 177.2h-3.7H55.7v13.6h111.5V178.1l-18.4-0.9H86.5V177.2zM102.8 185.5h-38.4v-2.5h38.4V185.5zM0 232.6h49.7v-83.7H0V232.6zM25.5 228.9c-1.6 0-2.9-1.3-2.9-2.9 0-1.6 1.3-2.9 2.9-2.9 1.6 0 2.9 1.3 2.9 2.9C28.4 227.7 27.1 228.9 25.5 228.9zM26 152.3c0.7 0 1.2 0.5 1.2 1.2 0 0.7-0.5 1.2-1.2 1.2 -0.7 0-1.2-0.5-1.2-1.2C24.8 152.9 25.3 152.3 26 152.3zM18.8 156.4h14.3v1.2h-14.3V156.4zM8 161.6l33.8 0v57.5c-12.9 0.1-27.4 0.1-33.8 0.1V161.6z"/><polygon points="89.2 34 225.6 34 225.6 79.5 237.3 79.5 237.3 22.3 77.5 22.3 77.5 81.8 89.2 81.8 "/><polygon points="155.8 136.7 177.4 136.7 177.4 131.3 170.7 131.3 170.7 124.7 177.4 124.7 177.4 109.6 155.8 109.6 "/><path d="M183.6 84.8v106.9h71.2V84.8H183.6zM220.7 186.3c-1.9 0-3.4-1.5-3.4-3.4 0-1.9 1.5-3.4 3.4-3.4s3.4 1.5 3.4 3.4C224.1 184.8 222.6 186.3 220.7 186.3zM244.5 174h-50.6V95.1h50.7L244.5 174z"/><polygon points="30.2 98.3 139.1 98.3 139.1 163.6 55.7 163.6 55.7 173.2 148.7 173.2 148.7 88.7 20.6 88.7 20.6 143.2 30.2 143.2 "/></svg>