<svg xmlns="http://www.w3.org/2000/svg" version="1.1" x="0" y="0" width="48.8" height="48.8" viewBox="0 0 48.8 48.8" xml:space="preserve" fill="#ecf0f1"><polygon points="15.4 32.8 22.2 32.8 22.2 34.4 15.4 34.4 15.4 35.7 36.8 35.7 36.8 34.4 28.9 34.4 28.9 32.8 37.7 32.8 37.7 29.2 15.4 29.2 "/><polygon points="9.5 11.2 42 11.2 42 24.2 44.7 24.2 44.7 8.4 6.7 8.4 6.7 17.1 9.5 17.1 "/><path d="M0 39.8h14.5V18H0V39.8zM7.6 38.7c-0.4 0-0.7-0.3-0.7-0.7 0-0.4 0.3-0.7 0.7-0.7 0.4 0 0.7 0.3 0.7 0.7S8 38.7 7.6 38.7zM2.1 20.1h10.3l0 16.1H2.1V20.1zM38.7 25v15.3h10.1V25H38.7zM44 25.7c0.1 0 0.2 0.1 0.2 0.2 0 0.1-0.1 0.2-0.2 0.2 -0.1 0-0.2-0.1-0.2-0.2C43.8 25.8 43.9 25.7 44 25.7zM42.7 26.4h2.6v0.2h-2.6V26.4zM43.9 39.7c-0.3 0-0.5-0.2-0.5-0.5 0-0.3 0.2-0.5 0.5-0.5 0.3 0 0.5 0.2 0.5 0.5C44.4 39.5 44.2 39.7 43.9 39.7zM47.4 37.9c-2.4 0-6 0-7.2 0V27.4l7.2 0V37.9z"/></svg>