<svg xmlns="http://www.w3.org/2000/svg" version="1.1" x="0" y="0" width="548.1" height="548.1" viewBox="0 0 548.1 548.1" xml:space="preserve" fill="#165F86"><path d="M473.2 108l-58.9 36 4.3 7.3c-28.7-8.2-85.6-22.9-115.6-22.9 -28.4 0-43.6 7.3-63.3 16.9 -3.9 1.8-35.9 17.2-36.5 17.3l-68.8-0.2 -63.4 86.8 44.6 41c-3.8 9.8-1.6 19.4 4.4 26.3 5.7 6.7 14.3 10.4 24.4 8.4 -6.8 12.9-5.9 23.3 1.6 32 7.3 8.4 17.6 11.5 31.4 6.3 -2.4 9.3-1.6 17.6 4.9 25.2 5.8 6.8 14.5 10.4 24.9 8.6l2.4-0.5c-4.4 11.5-2.4 20.7 3.8 27.9 9.4 11 25.7 12.2 36.4 2.8l9.7-8.4 9.3 17.5c4.6 8.7 15.6 13 25.5 7.8 9.7-5.2 12.8-16.7 8.1-25.6 -6.7-12.6-17.8-33-17.8-33 0.4-9.5-2.9-13.6-8-18.8l7.1-4.8c0 0 20 38.4 27.2 52 4.6 8.9 15.8 12.9 25.5 7.8 10.1-5.4 12.6-17 8.1-25.6l-29.3-54.7 8.3-5.2 32.6 61.5c4.9 9.3 16.4 12.7 25.5 7.9 10-5.5 12.7-16.8 8.1-25.6l-33.9-63.9 8.6-5.2c0 0 22.4 43.1 30.5 58.5 4.6 8.7 15.6 13 25.5 7.8 9.5-5 13-16.3 8.1-25.6l-22.4-42.2c16.6-9.8 27-24.8 39-43.1l29.9-18.8 9.3 14.8 63.7-33.2L473.2 108zM174.4 350.4c-5.7 5-14.3 4.2-18.9-1.3 -4.8-5.4-3.8-17.2 5.4-23.1 0.6-0.4 51.9-44.8 52.4-45.3 5.4-4.8 14-4.4 19 1.4 5 5.7 4.5 14.2-1.2 19.1L174.4 350.4zM210.7 381.9c-5.6 5-14.2 4.3-19-1.3 -4.6-5.4-4.6-13.2 0.1-18.2 0.8-0.8 41.5-36.1 42.4-36.8 5.5-4.9 14.1-4.3 19 1.3 5.1 6 4.4 14.5-1.2 19.2L210.7 381.9zM267.8 395.5l-25.9 22.4c-5.5 4.9-14.1 4.3-19-1.4 -5-5.7-4.3-14.4 1.2-19.1l25.9-22.6c5-4.2 12.9-4.7 18.6 1C273.1 379.5 274.6 389.6 267.8 395.5M437.3 256.8c-1 1-1.9 1.9-2.5 2.7 -8.8 13.7-21.7 30.7-34.8 37.5 -51.8-70.8-80.7-94-118.2-127.4l-87.4 40.9c-6.5 3.3-14.7 0.5-18-6.4 -3.3-6.7-0.5-14.9 6.3-18.2l84.7-39.7c10.7-3.9 21.9-5.8 35.7-5.8 28.8 0 97 18.9 125.4 26.9l41.2 70.2L437.3 256.8zM0 208.1l73.1-106.4 53.8 43.1 -71.5 99.2L0 208.1zM129.4 308.6c-5.1-5.8-4.2-14.5 1.2-19.1l46.4-40.4c5.6-4.7 14.2-4.2 19 1.4 5 5.8 4.5 14.2-1.2 19.2l-46.5 40.3C143.4 314.5 134.5 314.6 129.4 308.6z"/></svg>