<svg xmlns="http://www.w3.org/2000/svg" version="1.1" x="0" y="0" width="47" height="47" viewBox="0 0 47 47" xml:space="preserve" fill="#165F86"><path d="M23.5 11.4c-6.4 0-11.6 5-11.6 11.1 0 7.3 5 9.1 5 13.3 0 1 0.8 2 2 2.7 -0.3 0.2-0.4 0.4-0.4 0.7 0 0.3 0.3 0.6 0.7 0.9 -0.4 0.3-0.6 0.5-0.6 0.9 0 0.3 0.2 0.6 0.7 0.9 -0.4 0.3-0.7 0.6-0.7 0.9 0 0.4 0.4 0.7 1 1 -0.2 0.2-0.4 0.5-0.4 0.7 0 0.7 1.2 1.4 2.8 1.6C22.3 46.6 22.9 47 23.5 47c0.7 0 1.3-0.4 1.5-0.9 1.6-0.2 2.8-0.9 2.8-1.6 0-0.2-0.1-0.5-0.4-0.7 0.6-0.3 1-0.7 1-1 0-0.3-0.2-0.6-0.7-0.9 0.4-0.3 0.7-0.6 0.7-0.9 0-0.3-0.3-0.6-0.7-0.9 0.4-0.3 0.6-0.5 0.6-0.9 0-0.2-0.2-0.5-0.4-0.7 1.2-0.7 2-1.7 2-2.7 0-4.2 5-6.1 5-13.3C35.1 16.4 29.9 11.4 23.5 11.4zM29.5 29.4c-1.2 1.7-2.5 3.6-2.5 6.2 -0.4 0.4-1.8 1.2-3.5 1.2 -1.7 0-3.1-0.7-3.5-1.2 -0.1-2.6-1.4-4.5-2.5-6.2 -1.3-1.9-2.5-3.7-2.5-6.9 0-4.4 3.8-8.1 8.5-8.1 4.7 0 8.5 3.6 8.5 8.1C32 25.7 30.8 27.5 29.5 29.4zM23.5 7.6c0.8 0 1.5-0.9 1.5-2V2c0-1.1-0.7-2-1.5-2s-1.5 0.9-1.5 2v3.6C22 6.7 22.7 7.6 23.5 7.6zM15.7 9.6c0.7-0.4 0.9-1.5 0.3-2.5l-1.8-3.1c-0.5-1-1.6-1.4-2.3-1 -0.7 0.4-0.9 1.5-0.3 2.5l1.8 3.1C14 9.6 15 10.1 15.7 9.6zM9.1 13L6 11.2c-1-0.5-2.1-0.4-2.5 0.3 -0.4 0.7 0 1.8 1 2.3l3.1 1.8c1 0.6 2.1 0.4 2.5-0.3C10.5 14.6 10 13.6 9.1 13zM42.5 32.3l-3.1-1.8c-1-0.6-2.1-0.4-2.5 0.3 -0.4 0.7 0 1.8 1 2.3l3.1 1.8c1 0.6 2.1 0.4 2.5-0.3C43.9 33.9 43.5 32.8 42.5 32.3zM8 23.1c0-0.8-0.9-1.5-2-1.5H2.4c-1.1 0-2 0.7-2 1.5 0 0.8 0.9 1.5 2 1.5h3.6C7.1 24.6 8 23.9 8 23.1zM44.6 21.6h-3.6c-1.1 0-2 0.7-2 1.5 0 0.8 0.9 1.5 2 1.5h3.6c1.1 0 2-0.7 2-1.5C46.6 22.2 45.7 21.6 44.6 21.6zM7.6 30.5l-3.1 1.8c-1 0.6-1.4 1.6-1 2.3 0.4 0.7 1.5 0.9 2.5 0.3l3.1-1.8c1-0.5 1.4-1.6 1-2.3C9.7 30.1 8.5 30 7.6 30.5zM39.4 15.6l3.1-1.8c1-0.5 1.4-1.6 1-2.3 -0.4-0.7-1.5-0.9-2.5-0.3l-3.1 1.8c-1 0.6-1.4 1.6-1 2.3C37.3 16 38.5 16.2 39.4 15.6zM35 3.1c-0.7-0.4-1.8 0-2.3 1l-1.8 3.1c-0.5 1-0.4 2.1 0.3 2.5 0.7 0.4 1.8 0 2.3-1l1.8-3.1C35.9 4.6 35.8 3.5 35 3.1z"/></svg>