<svg xmlns="http://www.w3.org/2000/svg" version="1.1" x="0" y="0" viewBox="0 0 480.1 480.1" xml:space="preserve" fill="#165F86"><path d="M206.8 333H39.2c-3.9 0-7.1-3.2-7.1-7.1V53.4c0-3.9 3.2-7.1 7.1-7.1h401.6c3.9 0 7.1 3.2 7.1 7.1v59.7c11.8 1.4 22.8 5.2 32.2 11.6V53.4c0-21.6-17.6-39.2-39.2-39.2H39.2C17.6 14.1 0 31.7 0 53.4v272.6c0 21.6 17.6 39.2 39.2 39.2h134.6v52.6h-21.2c-13.3 0-24.1 10.8-24.1 24.1 0 13.3 10.8 24.1 24.1 24.1h67.7c-8.5-11.9-13.6-26.3-13.6-42V333zM341.7 441.6v-34.7h-70.7V185c0-4.7 3.8-8.5 8.5-8.5h159.9c4.7 0 8.5 3.8 8.5 8.5v68.7h12c7.4 0 14.2 2.1 20.1 5.6v-74.3c0-22.4-18.2-40.6-40.6-40.6H279.6c-22.4 0-40.6 18.2-40.6 40.6v238.9c0 22.4 18.2 40.6 40.6 40.6h69.4C344.6 458.2 341.7 449.4 341.7 441.6zM460 273.8h-78c-11.1 0-20.1 9-20.1 20.1v147.7c0 11.1 9 20.1 20.1 20.1h78c11.1 0 20.1-9 20.1-20.1V293.9C480.1 282.8 471.1 273.8 460 273.8zM386 297.9h70v127.7h-70V297.9zM421 452c-2.2 0-4.2-0.9-5.7-2.3 -1.7-1.6-2.8-3.7-2.8-6.2 0-4.7 3.8-8.5 8.5-8.5 4.7 0 8.5 3.8 8.5 8.5 0 2.5-1.1 4.7-2.8 6.2C425.2 451.1 423.2 452 421 452z"/></svg>