<svg xmlns="http://www.w3.org/2000/svg" version="1.1" x="0" y="0" viewBox="0 0 514 514" xml:space="preserve" fill="#165F86"><path d="M237 89.8c9.2-11.6 13.4-26 11.7-40.7C245.4 21.1 221.8 0 193.7 0c-33.2 0-58.8 28.9-55.1 61.6C144.3 111 206.7 128 237 89.8zM485.6 467.3C483.2 462.2 332.3 177 315.5 147.8c36.8-9.6 68.5 3.6 93.5 38.7 26.8 37.4 68.5 2.6 41.3-35.4C404.9 87.5 315 58.9 244.7 100.7c-30.9 18.3-55.9 32.3-90.5 32.3 -72.3 0-71.6-55.6-105.2-55.6 -20.2 0-34.6 23.5-16.3 49.1 48.4 67.8 113.7 88.2 177.5 70 18.8 32.4 37.1 65.9 56 102.4l-75.7 52.2c-24.5 21.4-5.1 51.4 10.6 60.9 19 11.4 43.1 23.3 66.6 34.9 49.8 24.6 52.4 27.6 65.7 28.6 27.3 2.1 45.4-38.7 13.2-58 -20.2-12.1-47.7-30.2-68.7-43.1 18.5-11.9 62-30 64.1-31.2 27.5 46.6 47 80.5 61.4 105.2 -0.1 0-0.2 0.1-0.2 0.1 0.1 0.1 0.1 0.2 0.2 0.3 28.2 47.8 28.8 51.7 39.4 59.9C464.5 525.3 502 501.1 485.6 467.3z" fill="#010002"/></svg>