<svg xmlns="http://www.w3.org/2000/svg" version="1.1" x="0" y="0" viewBox="0 0 486.9 486.9" xml:space="preserve" fill="#ecf0f1"><path d="M13.4 409.1c-17.8 17.8-17.8 46.7 0 64.5 8.9 8.9 20.6 13.3 32.3 13.3s23.3-4.4 32.3-13.3l149.7-149.7 -64.5-64.4L13.4 409.1z" fill="#ecf0f1"/><polygon points="387.5 131.6 452.8 97.9 486.9 31.9 455.1 0 389.1 34.2 355.3 99.4 276 178.8 308.2 211 " fill="#ecf0f1"/><path d="M401.8 304.6l-6.1-0.6c-11.1 0-21.7 2.3-31.5 5.9l-187.2-187.2c3.6-9.8 5.9-20.4 5.9-31.5l-0.6-6.1c-3.2-47.5-42.3-85.1-90.6-85.1 -14 0-27.2 3.4-39.1 9.1l60.6 60.6c3.2 3.2 5.4 7 6.8 10.9 4 10.8 1.8 23.3-6.8 32 -5.9 5.9-13.7 8.9-21.5 8.9 -3.6 0-7.1-0.8-10.5-2.1 -4-1.5-7.8-3.6-10.9-6.9L9.7 52.1c-5.7 11.9-9.1 25-9.1 39.1 0 48.3 37.6 87.4 85.1 90.6l6.1 0.6c11.1 0 21.7-2.3 31.5-5.9l187.1 187.2c-3.6 9.8-5.9 20.4-5.9 31.5l0.6 6.1c3.2 47.5 42.3 85.1 90.6 85.1 14 0 27.2-3.4 39.1-9.1l-60.6-60.6c-3.2-3.2-5.4-7-6.9-10.9 -4-10.8-1.8-23.4 6.9-32.1 5.9-5.9 13.7-8.9 21.5-8.9 3.6 0 7.1 0.8 10.6 2.1 4 1.5 7.8 3.6 10.9 6.8l60.6 60.6c5.7-11.9 9.1-25 9.1-39.1C486.9 347 449.3 307.9 401.8 304.6z" fill="#ecf0f1"/></svg>